<svg xmlns="http://www.w3.org/2000/svg" xmlns:xlink="http://www.w3.org/1999/xlink" viewBox="0 0 100 125" version="1.1" x="0px" y="0px"><title>pixelart-flower</title><desc>Created with Sketch.</desc><g stroke="none" stroke-width="1" fill="none" fill-rule="evenodd"><g transform="translate(18.000000, 18.000000)" fill="#2C9CEB"><rect x="28" y="20" width="8" height="4"/><rect x="28" y="40" width="8" height="4"/><rect x="20" y="28" width="4" height="8"/><rect x="24" y="24" width="4" height="4"/><rect x="36" y="24" width="4" height="4"/><rect x="24" y="36" width="4" height="4"/><rect x="36" y="36" width="4" height="4"/><rect x="40" y="28" width="4" height="8"/><rect x="24" y="4" width="4" height="8"/><rect x="36" y="4" width="4" height="8"/><rect x="28" y="0" width="8" height="4"/><rect x="12" y="8" width="8" height="4"/><rect x="40" y="12" width="4" height="4"/><rect x="52" y="12" width="4" height="8"/><rect x="8" y="12" width="4" height="8"/><rect x="44" y="8" width="8" height="4"/><rect x="20" y="12" width="4" height="4"/><rect x="0" y="28" width="4" height="8"/><rect x="4" y="24" width="8" height="4"/><rect x="4" y="36" width="8" height="4"/><rect transform="translate(62.000000, 32.000000) scale(-1, 1) translate(-62.000000, -32.000000) " x="60" y="28" width="4" height="8"/><rect transform="translate(56.000000, 26.000000) scale(-1, 1) translate(-56.000000, -26.000000) " x="52" y="24" width="8" height="4"/><rect transform="translate(56.000000, 38.000000) scale(-1, 1) translate(-56.000000, -38.000000) " x="52" y="36" width="8" height="4"/><rect x="12" y="20" width="4" height="4"/><rect x="48" y="20" width="4" height="4"/><rect transform="translate(26.000000, 56.000000) scale(1, -1) translate(-26.000000, -56.000000) " x="24" y="52" width="4" height="8"/><rect transform="translate(38.000000, 56.000000) scale(1, -1) translate(-38.000000, -56.000000) " x="36" y="52" width="4" height="8"/><rect transform="translate(32.000000, 62.000000) scale(1, -1) translate(-32.000000, -62.000000) " x="28" y="60" width="8" height="4"/><rect transform="translate(16.000000, 54.000000) scale(1, -1) translate(-16.000000, -54.000000) " x="12" y="52" width="8" height="4"/><rect transform="translate(42.000000, 50.000000) scale(1, -1) translate(-42.000000, -50.000000) " x="40" y="48" width="4" height="4"/><rect transform="translate(54.000000, 48.000000) scale(1, -1) translate(-54.000000, -48.000000) " x="52" y="44" width="4" height="8"/><rect transform="translate(10.000000, 48.000000) scale(1, -1) translate(-10.000000, -48.000000) " x="8" y="44" width="4" height="8"/><rect transform="translate(48.000000, 54.000000) scale(1, -1) translate(-48.000000, -54.000000) " x="44" y="52" width="8" height="4"/><rect transform="translate(22.000000, 50.000000) scale(1, -1) translate(-22.000000, -50.000000) " x="20" y="48" width="4" height="4"/><rect transform="translate(14.000000, 42.000000) scale(1, -1) translate(-14.000000, -42.000000) " x="12" y="40" width="4" height="4"/><rect transform="translate(50.000000, 42.000000) scale(1, -1) translate(-50.000000, -42.000000) " x="48" y="40" width="4" height="4"/></g></g><text x="0" y="115" fill="#2C9CEB" font-size="5px" font-weight="bold" font-family="'Helvetica Neue', Helvetica, Arial-Unicode, Arial, Sans-serif"></text><text x="0" y="120" fill="#2C9CEB" font-size="5px" font-weight="bold" font-family="'Helvetica Neue', Helvetica, Arial-Unicode, Arial, Sans-serif"></text></svg>