<svg id="Capa_1" enable-background="new 0 0 512 512" height="512" viewBox="0 0 512 512" width="512" xmlns="http://www.w3.org/2000/svg"><g><path fill="#1DA1F2" d="m64.394 176.606c5.857 5.857 15.355 5.858 21.213 0l19.393-19.393 19.394 19.394c5.857 5.857 15.355 5.858 21.213 0s5.858-15.355 0-21.213l-19.394-19.394 19.394-19.394c5.858-5.858 5.858-15.355 0-21.213-5.857-5.858-15.355-5.858-21.213 0l-19.394 19.394-19.394-19.393c-5.857-5.858-15.355-5.858-21.213 0s-5.858 15.355 0 21.213l19.394 19.393-19.394 19.394c-5.857 5.857-5.857 15.355.001 21.212z"/><path fill="#1DA1F2" d="m131.894 342.894-39.394 39.393-14.392-14.394c-5.858-5.858-15.355-5.858-21.213-.001s-5.859 15.355-.001 21.213l24.999 25.002c2.813 2.813 6.628 4.394 10.607 4.394 3.978 0 7.793-1.581 10.606-4.394l50.001-50.001c5.858-5.857 5.858-15.355 0-21.213-5.858-5.857-15.355-5.858-21.213.001z"/><path fill="#1DA1F2" d="m15 481h362c8.284 0 15-6.716 15-15v-180c0-8.284-6.716-15-15-15h-362c-8.284 0-15 6.716-15 15v180c0 8.284 6.716 15 15 15zm195-180h152v150h-152zm-180 0h150v150h-150z"/><path fill="#1DA1F2" d="m497 31h-482c-8.284 0-15 6.716-15 15v180c0 8.284 6.716 15 15 15h482c8.284 0 15-6.716 15-15v-180c0-8.284-6.716-15-15-15zm-317 180h-150v-150h150zm302 0h-272v-150h272z"/></g></svg>